<svg width="50" height="50" viewBox="0 0 50 50" fill="none" xmlns="http://www.w3.org/2000/svg">
<g clip-path="url(#clip0)">
<path d="M23.8853 32.0118C23.5453 31.6603 23.1558 31.3604 22.7292 31.1213C23.1637 30.7591 23.5372 30.3296 23.8355 29.8491C24.111 29.3764 24.2488 28.8361 24.2338 28.2892C24.237 27.8434 24.1446 27.402 23.9627 26.9948C23.7752 26.5887 23.4992 26.2297 23.1552 25.9439C22.7822 25.6315 22.352 25.3947 21.8885 25.2469C21.3685 25.0796 20.8249 24.9974 20.2788 25.0035C19.6567 24.9965 19.0378 25.0937 18.4479 25.2912C17.9488 25.4582 17.4854 25.7171 17.0817 26.0545C16.7431 26.3325 16.4583 26.6699 16.2409 27.0502C16.0621 27.3523 15.9631 27.6948 15.9532 28.0458C15.9386 28.339 16.0492 28.6245 16.2575 28.8313C16.4312 29.0163 16.673 29.1222 16.9268 29.1244C17.1172 29.1298 17.3062 29.0919 17.4799 29.0138C17.6215 28.9574 17.7375 28.8512 17.8063 28.7151C17.9114 28.4828 18.0275 28.2284 18.1492 27.9628C18.2538 27.7293 18.3876 27.51 18.5475 27.3101C18.6966 27.1316 18.8863 26.9912 19.1006 26.9008C19.3914 26.7887 19.7018 26.736 20.0133 26.7459C20.503 26.7234 20.9787 26.9128 21.3187 27.2659C21.6383 27.5849 21.8141 28.0204 21.8055 28.4717C21.8377 29.0106 21.6144 29.5332 21.2026 29.8822C20.7949 30.2123 20.2832 30.3867 19.7589 30.3745L19.427 30.3856C19.0817 30.3599 18.7379 30.4536 18.4534 30.6511C18.2377 30.8194 18.1145 31.0801 18.1216 31.3536C18.1052 31.6144 18.2044 31.8693 18.3926 32.0506C18.6097 32.2288 18.8867 32.3179 19.167 32.2995C19.2444 32.2995 19.4159 32.305 19.6593 32.2663C19.9027 32.2276 20.0907 32.2276 20.2124 32.2276C20.8134 32.1918 21.4017 32.4105 21.8331 32.8305C22.2282 33.2896 22.4269 33.8856 22.3863 34.4899C22.4155 34.9382 22.3158 35.3855 22.0986 35.7787C21.8893 36.1253 21.5914 36.4097 21.2357 36.6029C20.8958 36.7859 20.5156 36.8809 20.1295 36.8795C19.5543 36.9137 18.9941 36.6884 18.6028 36.2655C18.1564 35.7028 17.8119 35.0663 17.585 34.3848C17.5269 34.2324 17.4174 34.1052 17.2753 34.0253C17.1301 33.9263 16.9587 33.8723 16.783 33.8704C16.4677 33.8602 16.1612 33.9755 15.9311 34.1912C15.6988 34.4121 15.5737 34.7228 15.5882 35.0431C15.607 35.3909 15.6955 35.7313 15.8482 36.0443C16.061 36.4923 16.3469 36.9016 16.6945 37.2556C17.0927 37.6824 17.5698 38.028 18.0994 38.2734C18.7163 38.5438 19.3842 38.6776 20.0576 38.6661C20.7258 38.6732 21.3897 38.557 22.0157 38.3232C22.5836 38.1118 23.1043 37.7902 23.5479 37.3773C23.9661 36.991 24.2993 36.5219 24.5269 36C24.7457 35.4954 24.8587 34.9514 24.8588 34.4014C24.8635 33.9618 24.7808 33.5255 24.6154 33.1181C24.4477 32.7047 24.1995 32.3287 23.8853 32.0118Z" fill="url(#paint0_linear)"/>
<path d="M31.5544 36.5527L31.4765 36.5683V28.8811V27.8686L30.6726 28.484C29.9102 29.0677 29.286 29.495 28.7959 29.7741C28.281 30.0673 27.9903 30.1511 27.8679 30.1511L27.8671 30.1511C27.753 30.1513 27.6437 30.1049 27.5646 30.0226L27.5591 30.0169L27.5535 30.0113C27.4616 29.9216 27.4101 29.7983 27.4109 29.6697L27.4111 29.6417L27.4082 29.6139C27.3981 29.5185 27.4338 29.4245 27.5038 29.3601C27.7981 29.1694 28.1079 29.0038 28.4302 28.8648C29.6938 28.3248 30.7821 27.4437 31.5734 26.3203L31.5734 26.3204L31.5779 26.3138C31.7623 26.043 31.96 25.7812 32.1699 25.5293C32.2262 25.4961 32.2922 25.4817 32.358 25.4893L32.3939 25.4934L32.43 25.4922C32.5685 25.488 32.7005 25.5499 32.7857 25.6587C32.9283 25.8644 32.9979 26.1122 32.9831 26.3625L32.9823 26.3772V26.3919V36.8187C32.9823 37.3877 32.8823 37.7261 32.7568 37.9099C32.6547 38.0595 32.5083 38.1496 32.2322 38.1496H32.222L32.2119 38.15C32.0278 38.1574 31.8496 38.0858 31.7219 37.9536C31.56 37.7419 31.4818 37.4778 31.5027 37.2118L31.5544 36.5527Z" fill="white" stroke="url(#paint1_linear)"/>
<path d="M46.4092 5.89799C45.5309 5.01545 44.3355 4.52136 43.0904 4.5262H41.2816V4.02837C41.2851 2.99801 40.8885 2.0065 40.1753 1.26266L40.109 1.19076C40.1038 1.18564 40.0987 1.18052 40.0936 1.17541C38.534 -0.375603 36.0124 -0.368827 34.4614 1.19076C33.711 1.93777 33.289 2.95293 33.2887 4.01178V4.50961H16.7055V4.01178C16.709 2.98141 16.3124 1.98991 15.5992 1.24607L15.5329 1.17416C15.5278 1.16905 15.5226 1.16393 15.5175 1.15881C13.9581 -0.392197 11.4364 -0.385421 9.88529 1.17416C9.13496 1.92118 8.71291 2.93633 8.71263 3.99518V4.49301H6.90386L6.88727 4.48195C4.31142 4.48803 2.22483 6.57462 2.21875 9.15047V45.3259C2.21958 46.5311 2.68754 47.689 3.52416 48.5563L3.59054 48.6282C4.46893 49.5107 5.66427 50.0048 6.90939 50H43.0904C44.3348 50.0062 45.5299 49.5142 46.4092 48.6337C47.2918 47.7553 47.7859 46.56 47.781 45.3149V9.21684C47.7859 7.97158 47.2918 6.77638 46.4092 5.89799ZM35.5013 5.5993V3.98412C35.5024 3.51672 35.6895 3.06881 36.0212 2.73955C36.0251 2.73568 36.029 2.73181 36.033 2.7278C36.7189 2.0484 37.8256 2.05366 38.5048 2.73955L38.5491 2.7838C38.8521 3.11002 39.0201 3.53898 39.0193 3.98412V7.21447C39.0198 7.24434 39.0197 7.27435 39.0187 7.30422C38.988 8.25686 38.1908 9.00416 37.2382 8.97346C36.2754 8.96129 35.5011 8.17735 35.5013 7.21447V5.5993ZM10.9473 7.21447V5.5993L10.9695 3.98412C10.969 3.51741 11.1541 3.06978 11.4839 2.73955C11.4877 2.73568 11.4916 2.73181 11.4956 2.7278C12.1815 2.0484 13.2882 2.05366 13.9675 2.73955L14.0117 2.7838C14.3147 3.11002 14.4827 3.53898 14.4819 3.98412V7.21447C14.4872 7.29689 14.4862 7.37944 14.4793 7.46172C14.401 8.37482 13.5974 9.05173 12.6842 8.97346C12.6235 8.97636 12.5628 8.97609 12.5021 8.97235C11.5874 8.91621 10.8913 8.12923 10.9473 7.21447ZM4.47557 9.156C4.48165 7.81435 5.56775 6.72826 6.90939 6.72217H8.71816V7.22C8.71816 8.31522 9.48703 11.2137 12.7672 11.2137C16.003 11.2137 16.6945 8.31522 16.6945 7.21447V6.71664H33.2777V7.21447C33.2777 8.31522 33.9525 11.2137 37.2713 11.2137C40.7119 11.2137 41.265 8.32075 41.265 7.21447V6.71664H43.0683C43.7139 6.71581 44.333 6.97261 44.7885 7.43019C45.2456 7.88598 45.5024 8.50495 45.5021 9.15047V16.0924H4.47557V9.156ZM45.5076 45.3315C45.5084 45.9771 45.2517 46.5962 44.7941 47.0517C44.3386 47.5093 43.7194 47.7661 43.0738 47.7653H6.90939C6.25917 47.7567 5.63938 47.4877 5.18912 47.0185L5.13934 46.9743C4.71466 46.526 4.47723 45.9325 4.47557 45.3149V18.3271H45.5076V45.3315Z" fill="url(#paint2_linear)"/>
</g>
<defs>
<linearGradient id="paint0_linear" x1="20.223" y1="25.0032" x2="20.223" y2="38.6668" gradientUnits="userSpaceOnUse">
<stop stop-color="#C978FF"/>
<stop offset="1" stop-color="#927AFE"/>
</linearGradient>
<linearGradient id="paint1_linear" x1="30.1958" y1="24.9873" x2="30.1958" y2="38.6505" gradientUnits="userSpaceOnUse">
<stop stop-color="#C978FF"/>
<stop offset="1" stop-color="#927AFE"/>
</linearGradient>
<linearGradient id="paint2_linear" x1="24.9999" y1="0" x2="24.9999" y2="50" gradientUnits="userSpaceOnUse">
<stop stop-color="#C978FF"/>
<stop offset="1" stop-color="#927AFE"/>
</linearGradient>
<clipPath id="clip0">
<rect width="50" height="50" fill="white"/>
</clipPath>
</defs>
</svg>
