<svg width="24" height="24" viewBox="0 0 24 24" fill="none" xmlns="http://www.w3.org/2000/svg">
<g clip-path="url(#clip0)">
<path d="M1.49999 1.63298C-0.386014 3.59198 -1.43647e-05 5.67298 -1.43647e-05 11.995C-1.43647e-05 17.245 -0.916014 22.508 3.87799 23.747C5.37499 24.132 18.639 24.132 20.134 23.745C22.13 23.23 23.754 21.611 23.976 18.788C24.007 18.394 24.007 5.60298 23.975 5.20098C23.739 2.19398 21.888 0.460985 19.449 0.109985C18.89 0.0289853 18.778 0.00498533 15.91 -1.46665e-05C5.73699 0.00498533 3.50699 -0.448014 1.49999 1.63298Z" fill="url(#paint0_linear)"/>
<path d="M11.998 3.13898C8.367 3.13898 4.919 2.81598 3.602 6.19598C3.058 7.59198 3.137 9.40499 3.137 12.001C3.137 14.279 3.064 16.42 3.602 17.805C4.916 21.187 8.392 20.863 11.996 20.863C15.473 20.863 19.058 21.225 20.391 17.805C20.936 16.395 20.856 14.609 20.856 12.001C20.856 8.53899 21.047 6.30398 19.368 4.62598C17.668 2.92598 15.369 3.13898 11.994 3.13898H11.998ZM11.204 4.73598C18.778 4.72398 19.742 3.88199 19.21 15.579C19.021 19.716 15.871 19.262 11.999 19.262C4.939 19.262 4.736 19.06 4.736 11.997C4.736 4.85198 5.296 4.73998 11.204 4.73398V4.73598ZM16.728 6.20698C16.141 6.20698 15.665 6.68298 15.665 7.26998C15.665 7.85698 16.141 8.33298 16.728 8.33298C17.315 8.33298 17.791 7.85698 17.791 7.26998C17.791 6.68298 17.315 6.20698 16.728 6.20698ZM11.998 7.44998C9.485 7.44998 7.448 9.48799 7.448 12.001C7.448 14.514 9.485 16.551 11.998 16.551C14.511 16.551 16.547 14.514 16.547 12.001C16.547 9.48799 14.511 7.44998 11.998 7.44998ZM11.998 9.04698C15.903 9.04698 15.908 14.955 11.998 14.955C8.094 14.955 8.088 9.04698 11.998 9.04698Z" fill="white"/>
</g>
<defs>
<linearGradient id="paint0_linear" x1="1.54601" y1="22.4671" x2="23.8515" y2="3.16194" gradientUnits="userSpaceOnUse">
<stop stop-color="#FFDD55"/>
<stop offset="0.5" stop-color="#FF543E"/>
<stop offset="1" stop-color="#C837AB"/>
</linearGradient>
<clipPath id="clip0">
<rect width="24" height="24" fill="white"/>
</clipPath>
</defs>
</svg>
