<svg width="24" height="24" viewBox="0 0 24 24" fill="none" xmlns="http://www.w3.org/2000/svg">
<path d="M21 0H3C1.34315 0 0 1.34315 0 3V21C0 22.6569 1.34315 24 3 24H21C22.6569 24 24 22.6569 24 21V3C24 1.34315 22.6569 0 21 0Z" fill="#50ABF1"/>
<path d="M3.17962 17.7906C4.77688 18.8036 6.67157 19.3899 8.70261 19.3899C14.4086 19.3899 19.034 14.7639 19.034 9.05853C19.034 8.91608 19.031 8.77468 19.0255 8.6337C19.2319 8.47129 20.5083 7.44821 20.8212 6.79051C20.8212 6.79051 19.7846 7.22129 18.7701 7.32277C18.7681 7.32277 18.7657 7.32324 18.7637 7.32324C18.7637 7.32324 18.7657 7.32224 18.7691 7.31977C18.8626 7.25731 20.1695 6.36768 20.3464 5.30768C20.3464 5.30768 19.6133 5.69902 18.5867 6.04138C18.4168 6.09784 18.2389 6.15334 18.0554 6.20479C17.3937 5.49859 16.4532 5.0578 15.4092 5.0578C13.4065 5.0578 11.7838 6.68007 11.7838 8.68115C11.7838 8.96353 11.8163 9.23837 11.8778 9.50226C11.5979 9.49078 7.33628 9.25185 4.4371 5.74094C4.4371 5.74094 2.70439 8.10639 5.46965 10.5388C5.46965 10.5388 4.62905 10.5053 3.90384 10.072C3.90384 10.072 3.63747 12.9377 6.76905 13.6704C6.76905 13.6704 6.15285 13.9038 5.16979 13.7373C5.16979 13.7373 5.71954 16.0528 8.50181 16.2692C8.50181 16.2692 6.30172 18.2567 3.17862 17.7904L3.17962 17.7906Z" fill="white"/>
</svg>
